<svg width="640" height="360" viewBox="0 0 640 360" fill="none" xmlns="http://www.w3.org/2000/svg">
  <rect width="640" height="360" rx="28" fill="#0f1522"/>
  <g opacity="0.5" stroke="#d9b15f" stroke-width="1.2">
    <path d="M96 82 L160 120 L214 96 L278 138 L332 104 L412 160"/>
    <path d="M224 220 L280 190 L340 230 L410 210 L468 242"/>
    <path d="M120 260 L190 240 L260 272 L330 250 L392 290 L470 270"/>
  </g>
  <g fill="#f6e8c4">
    <circle cx="96" cy="82" r="4"/>
    <circle cx="160" cy="120" r="5"/>
    <circle cx="214" cy="96" r="4"/>
    <circle cx="278" cy="138" r="5"/>
    <circle cx="332" cy="104" r="4"/>
    <circle cx="412" cy="160" r="6"/>
    <circle cx="224" cy="220" r="4"/>
    <circle cx="280" cy="190" r="5"/>
    <circle cx="340" cy="230" r="4"/>
    <circle cx="410" cy="210" r="5"/>
    <circle cx="468" cy="242" r="4"/>
    <circle cx="120" cy="260" r="4"/>
    <circle cx="190" cy="240" r="5"/>
    <circle cx="260" cy="272" r="4"/>
    <circle cx="330" cy="250" r="4"/>
    <circle cx="392" cy="290" r="5"/>
    <circle cx="470" cy="270" r="4"/>
  </g>
  <g opacity="0.25" stroke="#3c7d7f" stroke-width="1">
    <circle cx="520" cy="84" r="46"/>
    <circle cx="520" cy="84" r="24"/>
    <path d="M520 38 V130"/>
    <path d="M474 84 H566"/>
  </g>
</svg>
